<svg version="1.1" id="Capa_1" xmlns="http://www.w3.org/2000/svg" x="0" y="0" viewBox="0 0 512 512" xml:space="preserve"><circle cx="256" cy="256" r="245" fill="#ff9518"/><path d="M246.506 67.619H60.643c-5.482 0-9.968 4.485-9.968 9.967v49.837h195.831V67.619z" fill="#293d7c"/><path d="M80.486 67.619H60.643c-5.482 0-9.968 4.485-9.968 9.967v49.837h19.843V77.587c0-5.482 4.485-9.968 9.968-9.968z" fill="#1a2b63"/><path d="M84.423 107.442a8.484 8.484 0 01-5.944-2.453 8.486 8.486 0 01-2.452-5.944c0-2.206.896-4.367 2.452-5.934a8.448 8.448 0 015.944-2.463c2.205 0 4.377.895 5.933 2.463a8.447 8.447 0 012.464 5.934 8.45 8.45 0 01-2.464 5.944 8.461 8.461 0 01-5.933 2.453z" fill="#e26693"/><path d="M111.957 107.442a8.41 8.41 0 01-8.396-8.396c0-2.206.896-4.367 2.462-5.934a8.448 8.448 0 015.934-2.463c2.216 0 4.376.895 5.945 2.463a8.482 8.482 0 012.451 5.934 8.464 8.464 0 01-2.451 5.932 8.457 8.457 0 01-5.945 2.464z" fill="#ffaf10"/><path d="M139.503 107.442a8.442 8.442 0 01-5.934-2.453 8.454 8.454 0 01-2.463-5.944 8.405 8.405 0 018.397-8.397c2.205 0 4.377.895 5.933 2.463a8.447 8.447 0 012.464 5.934 8.45 8.45 0 01-2.464 5.944 8.48 8.48 0 01-5.933 2.453z" fill="#37c47a"/><path d="M251.506 169.663c-2.75 0-5-2.25-5-5v-37.24H50.675v262.266a246.33 246.33 0 0048.687 54.692h313.277a246.333 246.333 0 0048.687-54.692V169.663h-209.82z" fill="#aec1ed"/><path d="M70.518 383.204V127.423H50.675v262.266c.142.216.287.43.429.646l19.414-7.131z" fill="#85a0dd"/><path d="M251.506 169.663c-2.75 0-5-2.25-5-5v-12.322H80.594c-2.75 0-5 2.25-5 5V381.34l43.154-15.85c.435-.159.835-.244 1.157-.244s.54.077.646.228c.161.231.215.799-.116 1.701l-19.206 52.288h330.179c2.75 0 5-2.25 5-5v-244.8H251.506z" fill="#d9eafc"/><path d="M245.506 165.663c0 2.75 2.25 5 5 5H507c2.75 0 5-2.25 5-5V30.001c0-2.75-2.25-5-5-5H250.506c-2.75 0-5 2.25-5 5v135.662z" fill="#ffd00d"/><path d="M265.349 165.663V30.001c0-2.75 2.25-5 5-5h-19.843c-2.75 0-5 2.25-5 5v135.662c0 2.75 2.25 5 5 5h19.843c-2.75 0-5-2.25-5-5z" fill="#ffaf10"/><path d="M512 30.001c0-2.75-2.25-5-5-5h-47.17v49.17a3 3 0 003 3H512v-47.17z" fill="#b7092b"/><path d="M405.557 205.489H232.03c-4.143 0-7.5-3.358-7.5-7.5s3.357-7.5 7.5-7.5h173.527a7.5 7.5 0 010 15zm0 25.498H232.03c-4.143 0-7.5-3.358-7.5-7.5s3.357-7.5 7.5-7.5h173.527a7.5 7.5 0 010 15zm-56.711 25.499H232.03c-4.143 0-7.5-3.358-7.5-7.5s3.357-7.5 7.5-7.5h116.816a7.5 7.5 0 017.5 7.5 7.5 7.5 0 01-7.5 7.5zM240.471 385.978H113.529l-5.51 15h132.452c4.143 0 7.5-3.358 7.5-7.5s-3.357-7.5-7.5-7.5zm0-23.998H106.972a7.5 7.5 0 00-6.926 10.379l18.702-6.869c.435-.159.835-.244 1.157-.244s.54.077.646.228c.161.231.215.799-.116 1.701l-3.601 9.804h123.637a7.5 7.5 0 100-14.999zm0-8.999H106.972c-4.143 0-7.5-3.358-7.5-7.5s3.357-7.5 7.5-7.5h133.499c4.143 0 7.5 3.358 7.5 7.5s-3.357 7.5-7.5 7.5zm164.558 47.997H271.53c-4.143 0-7.5-3.358-7.5-7.5s3.357-7.5 7.5-7.5h133.499a7.5 7.5 0 010 15zm0-23.998H271.53c-4.143 0-7.5-3.358-7.5-7.5s3.357-7.5 7.5-7.5h133.499a7.5 7.5 0 010 15zm0-23.999H271.53c-4.143 0-7.5-3.358-7.5-7.5s3.357-7.5 7.5-7.5h133.499a7.5 7.5 0 010 15z" fill="#445ea0"/><path d="M121.373 367.52c.948-2.582-.389-3.918-2.97-2.969L5.956 405.853c-2.581.948-3.103 3.315-1.158 5.259l21.927 21.926a5.016 5.016 0 010 7.071L1.458 465.375a5.016 5.016 0 000 7.071l12.021 12.02a5.013 5.013 0 007.07 0L45.816 459.2a5.013 5.013 0 017.07 0l21.926 21.925c1.944 1.945 4.311 1.424 5.259-1.158l41.302-112.447z" fill="#293d7c"/><path d="M15.776 422.089l98.896-36.325 6.701-18.244c.948-2.582-.389-3.918-2.97-2.969L5.956 405.853c-2.581.948-3.103 3.315-1.158 5.259l10.978 10.977z" fill="#1a2b63"/><path d="M205 262c0 2.75-2.25 5-5 5H100c-2.75 0-5-2.25-5-5v-76c0-2.75 2.25-5 5-5h100c2.75 0 5 2.25 5 5v76zm210.245 57.497c0 2.75-2.25 5-5 5h-308.49c-2.75 0-5-2.25-5-5v-35.503c0-2.75 2.25-5 5-5h308.49c2.75 0 5 2.25 5 5v35.503z" fill="#445ea0"/><path d="M114.843 262v-76c0-2.75 2.25-5 5-5H100c-2.75 0-5 2.25-5 5v76c0 2.75 2.25 5 5 5h19.843c-2.75 0-5-2.25-5-5zm1.755 57.497v-35.503c0-2.75 2.25-5 5-5h-19.843c-2.75 0-5 2.25-5 5v35.503c0 2.75 2.25 5 5 5h19.843c-2.75 0-5-2.25-5-5z" fill="#293d7c"/><path d="M363.556 143h-22a7.5 7.5 0 01-7.5-7.5v-69a7.5 7.5 0 017.5-7.5h22c12.406 0 22.5 10.093 22.5 22.5v39c0 12.407-10.094 22.5-22.5 22.5zm-14.5-15h14.5c4.136 0 7.5-3.364 7.5-7.5v-39c0-4.136-3.364-7.5-7.5-7.5h-14.5v54zm76.5 15h-27c-4.143 0-7.5-3.358-7.5-7.5s3.357-7.5 7.5-7.5h27c1.355 0 2.5-1.145 2.5-2.5V111c0-1.355-1.145-2.5-2.5-2.5h-17c-9.649 0-17.5-7.851-17.5-17.5V76.5c0-9.649 7.851-17.5 17.5-17.5h27a7.5 7.5 0 010 15h-27c-1.355 0-2.5 1.145-2.5 2.5V91c0 1.355 1.145 2.5 2.5 2.5h17c9.649 0 17.5 7.851 17.5 17.5v14.5c0 9.65-7.851 17.5-17.5 17.5zm-119-84h-7c-12.406 0-22.5 10.093-22.5 22.5v54a7.5 7.5 0 0015 0v-26.833h22V135.5a7.5 7.5 0 0015 0v-54c0-12.407-10.094-22.5-22.5-22.5zm-14.5 34.667V81.5c0-4.136 3.364-7.5 7.5-7.5h7c4.136 0 7.5 3.364 7.5 7.5v12.167h-22z" fill="#1a2b63"/><path d="M496.522 51.086l6.783-6.782a7.498 7.498 0 00.001-10.606 7.501 7.501 0 00-10.607-.001l-6.785 6.784-6.784-6.784a7.5 7.5 0 00-10.607.001 7.498 7.498 0 00.001 10.606l6.783 6.782-6.783 6.782a7.498 7.498 0 00-.001 10.606 7.476 7.476 0 005.304 2.197 7.477 7.477 0 005.303-2.196l6.784-6.784 6.785 6.784c1.464 1.464 3.384 2.196 5.303 2.196s3.839-.732 5.304-2.197a7.498 7.498 0 00-.001-10.606l-6.783-6.782z" fill="#e26693"/></svg>