<svg version="1.1" id="Capa_1" xmlns="http://www.w3.org/2000/svg" x="0" y="0" viewBox="0 0 512 512" xml:space="preserve" fill="#fff"><path d="M123.17 185.756c-9.515-7.433-23.304-5.74-30.738 3.774a7.502 7.502 0 005.904 12.118c2.229 0 4.436-.99 5.915-2.883 2.343-2.998 6.687-3.53 9.683-1.189a7.5 7.5 0 0010.527-1.293 7.497 7.497 0 00-1.291-10.527zm76.993-9.453c-9.516-7.434-23.305-5.741-30.738 3.774a7.5 7.5 0 0011.819 9.235 6.905 6.905 0 019.683-1.189 7.502 7.502 0 0010.528-1.292 7.502 7.502 0 00-1.292-10.528zm-8.666 57.652l-.855-6.97a11.299 11.299 0 00-4.286-7.576 11.31 11.31 0 00-8.386-2.326l-43.071 5.288a11.294 11.294 0 00-7.575 4.286 11.293 11.293 0 00-2.326 8.386l.856 6.972c2.223 18.101 18.753 31.013 36.852 28.792 18.098-2.222 31.014-18.754 28.791-36.852zm-30.619 21.963c-9.878 1.222-18.921-5.843-20.135-15.732l-.414-3.369 35.867-4.403.414 3.369c1.214 9.889-5.843 18.921-15.732 20.135z"/><path d="M245.693 34.573C238.332 18.8 225.806 7.029 209.469.532a7.5 7.5 0 00-9.442 3.541c-8.069 15.704-27.562 26.881-52.142 29.899l-43.37 5.325a7.5 7.5 0 101.828 14.888l43.37-5.325c26.391-3.241 48.21-14.921 59.927-31.745 24.445 13.052 30.377 40.412 27.727 60.982-2.755 21.382-13.997 37.459-27.337 39.097L64.101 135.113c-12.112 1.487-20.756 12.552-19.269 24.664l1.793 14.604-11.366 1.396-11.393-92.79a18.414 18.414 0 013.79-13.67 18.413 18.413 0 0112.347-6.985l36.401-4.469a7.5 7.5 0 00-1.828-14.888l-36.401 4.47C19.822 49.697 6.724 66.461 8.978 84.814l11.776 95.912c-7.605 5.423-11.875 14.697-10.695 24.268 1.598 12.977 12.648 22.763 25.703 22.763 1.016 0 2.076-.064 3.186-.196l13.995-1.724 1.374 11.174c2.875 23.418 14.698 44.315 33.289 58.841 15.686 12.257 34.605 18.74 54.199 18.74a89.81 89.81 0 0010.941-.672c11.3-1.39 22.033-4.858 31.897-10.307a87.895 87.895 0 0024.983-20.567 7.5 7.5 0 10-11.493-9.639 72.977 72.977 0 01-20.739 17.074c-8.182 4.519-17.09 7.396-26.477 8.551-19.437 2.387-38.642-2.94-54.075-14.999-15.434-12.06-25.249-29.408-27.636-48.851l-2.29-18.62a7.503 7.503 0 00-8.36-6.529l-21.405 2.637c-.492.059-.959.088-1.389.088-5.493 0-10.142-4.125-10.816-9.597-.602-4.882 2.152-9.585 6.696-11.437l.023-.011c.881-.362 1.82-.607 2.789-.726l21.442-2.633a7.5 7.5 0 006.53-8.358l-2.707-22.049c-.479-3.903 2.307-7.469 6.209-7.948l138.481-17.003 10.356 84.318c1.356 11.008.258 21.883-3.263 32.326a7.5 7.5 0 1014.213 4.793c4.246-12.59 5.57-25.696 3.937-38.95l-10.458-85.146c16.93-6.03 29.814-25.211 33.05-50.322 2.045-15.871-.281-32.009-6.551-45.442zm173.873 352.365c-7.433-9.515-21.223-11.208-30.738-3.774a7.5 7.5 0 00-1.292 10.528 7.5 7.5 0 0010.528 1.292c2.997-2.343 7.341-1.808 9.683 1.189a7.488 7.488 0 005.915 2.883 7.5 7.5 0 005.904-12.118zm-76.992-9.453c-7.433-9.514-21.222-11.209-30.737-3.774a7.5 7.5 0 109.234 11.82 6.908 6.908 0 019.684 1.189 7.486 7.486 0 005.915 2.883 7.5 7.5 0 005.904-12.118zm34.527 42.295l-43.073-5.289a11.311 11.311 0 00-8.385 2.326c-5.386 4.207-4.128 9.869-5.141 14.546-3.607 29.372 30.215 48.029 53.18 30.088 13.802-10.783 12.416-25.654 13.319-28.999.764-6.222-3.676-11.907-9.9-12.672zm-12.654 29.851a17.956 17.956 0 01-13.326 3.696c-9.911-1.216-16.948-10.222-15.732-20.135l.414-3.37 35.867 4.404c-.437 1.59.225 9.586-7.223 15.405z"/><path d="M496.162 257.489c-5.515-7.058-13.448-11.547-22.339-12.638l-103.057-12.654c-3.847-.472-7.364-2.563-9.651-5.736-7.136-9.903-16.841-17.584-28.065-22.214a7.5 7.5 0 00-5.719 13.867c8.64 3.563 16.114 9.482 21.615 17.116 4.723 6.554 12.01 10.875 19.992 11.855l103.057 12.654c10.144 1.246 17.384 10.512 16.137 20.655l-11.392 92.79-11.367-1.396 1.793-14.605c1.486-12.112-7.158-23.176-19.27-24.663l-145.929-17.918c-13.711-1.684-25.83-8.697-34.125-19.749-8.29-11.045-11.634-24.657-9.415-38.33 3.567-21.983 21.553-39.199 43.738-41.866a7.499 7.499 0 006.551-8.341c-.494-4.112-4.231-7.049-8.341-6.551-28.784 3.459-52.123 25.812-56.755 54.356-2.877 17.736 1.464 35.399 12.225 49.737 9.249 12.322 22.167 20.762 36.907 24.286l-10.409 84.746c-1.387 11.287-.618 22.546 2.286 33.462a7.503 7.503 0 007.243 5.574 7.5 7.5 0 007.253-9.43c-2.409-9.056-3.046-18.401-1.894-27.778l10.355-84.314 138.481 17.003c3.903.479 6.689 4.045 6.21 7.948l-2.708 22.049a7.5 7.5 0 006.53 8.358l21.442 2.633c.912.112 1.794.345 2.631.673 4.667 1.797 7.492 6.502 6.878 11.501-.673 5.471-5.323 9.596-10.816 9.596-.429 0-.895-.029-1.354-.084l-21.44-2.64a7.499 7.499 0 00-8.361 6.529l-2.29 18.621c-2.387 19.442-12.202 36.79-27.636 48.85-15.433 12.059-34.633 17.389-54.077 14.999-10.201-1.25-19.817-4.533-28.581-9.758a73.093 73.093 0 01-21.595-19.627 7.5 7.5 0 00-12.089 8.879 88.018 88.018 0 0026.005 23.632c10.567 6.3 22.154 10.258 34.436 11.762 3.66.45 7.31.672 10.94.672 19.592 0 38.514-6.484 54.199-18.74 18.591-14.527 30.413-35.424 33.288-58.84l1.374-11.175c13.388 1.59 14.43 1.919 17.182 1.919 13.055 0 24.106-9.786 25.704-22.766 1.187-9.678-3.063-18.898-10.692-24.292l11.772-95.885c1.094-8.89-1.342-17.673-6.857-24.732zM389.982 62.914a7.5 7.5 0 00-7.5 7.5v18.359a7.5 7.5 0 0015 0V70.414a7.5 7.5 0 00-7.5-7.5zm0 56.436a7.5 7.5 0 00-7.5 7.5v18.359a7.5 7.5 0 0015 0V126.85a7.5 7.5 0 00-7.5-7.5zm37.398-19.038h-18.359a7.5 7.5 0 000 15h18.359a7.5 7.5 0 000-15zm-56.436 0h-18.359a7.5 7.5 0 000 15h18.359a7.5 7.5 0 000-15zM122.017 359.286a7.5 7.5 0 00-7.5 7.5v18.359a7.5 7.5 0 0015 0v-18.359a7.5 7.5 0 00-7.5-7.5zm0 56.437a7.5 7.5 0 00-7.5 7.5v18.359a7.5 7.5 0 0015 0v-18.359a7.5 7.5 0 00-7.5-7.5zm37.397-19.039h-18.359a7.5 7.5 0 000 15h18.359a7.5 7.5 0 000-15zm-56.436 0H84.62a7.5 7.5 0 000 15h18.359a7.5 7.5 0 10-.001-15z"/></svg>