<svg version="1.1" id="Capa_1" xmlns="http://www.w3.org/2000/svg" x="0" y="0" viewBox="0 0 480.001 480.001" xml:space="preserve" fill="#fff"><path d="M472 0H112a8 8 0 00-8 8v120h16V16h344v440a7.873 7.873 0 01-7.368 8c-.688 0-1.376-.056-2.064-.072-1.416-.04-2.832-.072-4.224-.216-.12 0-.232 0-.352-.048-26.128-2.856-46.767-23.475-49.648-49.6 0-.112-.04-.232-.056-.344A55.763 55.763 0 01400 408v-16a8 8 0 00-8-8H120V240h-16v144H40a8 8 0 00-8 8v16c.044 39.746 32.254 71.956 72 72h352.8c12.982-.34 23.3-11.014 23.2-24V8a8 8 0 00-8-8zM104 464c-30.913-.035-55.965-25.087-56-56v-8h336v8c.011 2.638.163 5.274.456 7.896.072.696.208 1.368.304 2.056a69.319 69.319 0 001.008 5.76c.144.664.328 1.32.496 1.984a72.76 72.76 0 001.68 5.696c.184.536.376 1.064.576 1.6a70.234 70.234 0 002.456 5.832c.192.392.368.8.56 1.16a67.514 67.514 0 003.304 5.912c.16.256.304.52.464.8a71.828 71.828 0 004.216 5.92l.256.344a73.739 73.739 0 005.6 6.264 70.533 70.533 0 005.36 4.8L104 464z"/><path d="M264 224a8 8 0 005.656-2.344l32-32a8 8 0 000-11.312l-32-32A8 8 0 00264 144H40c-22.091 0-40 17.909-40 40s17.909 40 40 40h224zm-2.064-62.752L284.688 184l-22.752 22.752L256.248 184l5.688-22.752zM64 160h181.76l-4 16H80v16h161.76l4 16H64v-48zm-48 24c0-13.255 10.745-24 24-24h8v48h-8c-13.255 0-24-10.745-24-24zm168 160h240a8 8 0 008-8V96a8 8 0 00-13.656-5.656l-240 240A8 8 0 00184 344zm232-228.688V136h-16v16h16v16h-16v16h16v16h-16v16h16v16h-16v16h16v16h-16v16h16v16h-16v16h16v16h-16v-16h-16v16h-16v-16h-16v16h-16v-16h-16v16h-16v-16h-16v16h-16v-16h-16v16h-16v-16h-16v16h-20.688L416 115.312z"/><path d="M299.88 296H376a8 8 0 008-8v-76.12a8 8 0 00-13.656-5.656l-76.12 76.12A8 8 0 00299.88 296zM368 231.2V280h-48.8l48.8-48.8zM208 48h160v16H208zm-24 32h208v16H184zm-48 168h48v16h-48zm0 32h32v16h-32z"/></svg>