<svg width="136" height="109" xmlns="http://www.w3.org/2000/svg" xmlns:xlink="http://www.w3.org/1999/xlink"><defs><path id="path-1" d="M41.557.208H.177V23.7h41.38V.208z"/><path id="path-3" d="M23.341 5.068V.015H.131v5.053h23.21z"/><path id="path-5" d="M15.154 4.012V.109H.149v3.903h15.005z"/><path id="path-7" d="M50.533 51.313V.63H0v60.703h50.533v-10.02h-9.935v10.02h9.935v-10.02z"/></defs><g id="Page-1" stroke="none" stroke-width="1" fill="none" fill-rule="evenodd"><g id="Blue" transform="translate(-131 -1055)"><g id="Group-10" transform="translate(131 1055)"><g id="Group-8"><g id="Page-1" transform="translate(59 55)"><g id="Group-3" transform="translate(5.462 .03)"><mask id="mask-2" fill="#fff"><use xlink:href="#path-1"/></mask><path d="M4.382 1.266C4.88.56 5.766.226 6.614.29 17.47.282 28.324.195 39.182.21c1.879-.111 3.13 2.385 1.858 3.793-.746 1.073-2.154.99-3.309.955-1.348-.003-2.7-.024-4.046.002-1.216.002-2.23 1.171-2.147 2.363-.048.77.563 1.313.912 1.934-1.98 1.671-4 3.297-5.959 4.992-1.408.199-2.85-.121-4.248.154-1.332.353-2.028 1.948-1.463 3.185.382.849 1.297 1.41 2.235 1.344 3.479 0 6.96-.005 10.442-.007.893.014 1.812-.104 2.68.163-4.376.09-8.757.072-13.134.126-.497-.014-.931.242-1.297.548-1.565 1.294-3.09 2.637-4.688 3.894-.943.09-1.89.014-2.835.023-1.73-.007-3.458-.002-5.187 0-2.142-.007-4.284.003-6.424-.002-.843.017-1.648-.453-2.087-1.161l-.242-.57a3.343 3.343 0 01-.027-1.18c.31-1.021 1.266-1.806 2.356-1.777 1.294.083 2.48-1.04 2.468-2.335.004-1.071-.789-2.09-1.848-2.303-.758-.138-1.534-.04-2.299-.072 1.686-1.637 3.555-3.067 5.346-4.586 1.893-.192 3.81.057 5.704-.118 1.264-.15 2.23-1.444 2-2.695-.171-1.11-1.192-2.005-2.32-2-1.831-.057-3.662.026-5.49-.031-.965-.031-1.986-.778-2.04-1.792-.02-.602-.089-1.278.289-1.792" id="Fill-1" fill="#E1F4FF" mask="url(#mask-2)"/></g><g id="Group-6" transform="translate(31.823 9.273)"><mask id="mask-4" fill="#fff"><use xlink:href="#path-3"/></mask><path d="M.13 5.006C2.09 3.312 4.11 1.686 6.09.015c.562.168 1.123.393 1.723.353 4.356-.01 8.714-.02 13.07-.017 1.001-.057 1.97.588 2.317 1.527.394 1.07-.06 2.35-1.074 2.896-.743.403-1.624.265-2.434.291C13.171 5.03 6.65 5.09.131 5.006" id="Fill-4" fill="#D4EFFE" mask="url(#mask-4)"/></g><g id="Group-9" transform="translate(0 9.51)" fill="#EAF8FF"><path d="M.25 3.508C-.615 1.898.903-.18 2.703.124c2.895.04 5.79-.005 8.685.026l.313.064C9.911 1.733 8.041 3.162 6.355 4.8c-.612.005-1.225-.002-1.835.005-1.487-.033-3.48.353-4.27-1.297" id="Fill-7"/></g><path d="M27.168 19.792c.366-.306.8-.562 1.297-.548 4.377-.054 8.758-.035 13.135-.125 1.107.34 1.824 1.564 1.582 2.697-.195 1.085-1.242 1.943-2.351 1.894-6.118.004-12.233-.015-18.35-.024 1.598-1.256 3.122-2.6 4.687-3.894" id="Fill-10" fill="#D3EFFE"/></g><g id="Page-1" transform="translate(15 59)" fill="#EFF9FF"><path d="M16.475 0c.555 1.583.797 3.283 1.325 4.883-2.148.172-4.308.045-6.46.074-1.47.125-2.83-1.334-2.525-2.792.157-1.09 1.14-2.035 2.262-2.033 1.798-.075 3.603.1 5.398-.132" id="Fill-1"/><path d="M1.432.287C2.19.015 3.03.07 3.82.163c1.677.182 2.55 2.45 1.52 3.76-.703 1.237-2.313 1.127-3.525.974C.327 4.567-.458 2.677.282 1.365.585.935.967.542 1.432.288" id="Fill-3"/></g><g id="Page-1" transform="translate(29 24)"><g id="Group-3" transform="translate(4.101 .087)"><mask id="mask-6" fill="#fff"><use xlink:href="#path-5"/></mask><path d="M1.38.27A3.367 3.367 0 012.484.124c3.58 0 7.161-.027 10.74-.007 1.075-.038 2.01.981 1.924 2.051-.037.99-.922 1.865-1.916 1.838-3.71.01-7.422.006-11.135-.002a1.947 1.947 0 01-1.783-1.05C-.1 1.961.265.59 1.38.27" id="Fill-1" fill="#C7EBFE" mask="url(#mask-6)"/></g><path d="M1.568 8.035c1.023-.063 2.052-.047 3.078-.03 1.052.015 1.915 1.061 1.802 2.104-.07.916-.865 1.73-1.787 1.76-.921.034-1.843.02-2.763.01-.969.016-1.85-.824-1.89-1.796-.09-.948.626-1.894 1.56-2.048" id="Fill-4" fill="#C6EBFE"/></g><g id="Page-1" transform="translate(88 50)"><path d="M41.396.931c1.67-.873 3.98.534 3.815 2.467.172 2.093-2.61 3.507-4.2 2.173-1.681-1.06-1.403-3.84.385-4.64" id="Fill-1" fill="#FEBF2D"/><path d="M5.252 35.885c.61-1.187.583-3.114 2.239-3.307.841 1.94 1.258 4.44 3.404 5.407 1.06.773 3.067.46 3.286 2.066-1.232.947-2.822 1.174-4.133 1.954-1.563 1.126-1.802 3.2-2.557 4.853-2.133-.487-1.503-3.333-2.881-4.627C3.358 40.765.477 41.478 0 39.318c1.841-.92 4.497-1.173 5.252-3.433" id="Fill-3" fill="#90DFFE"/><g id="Group-7" transform="translate(0 .036)"><mask id="mask-8" fill="#fff"><use xlink:href="#path-7"/></mask><path d="M44.688 54.175c-1.504.533-1.987 2.7-.802 3.8 1.047 1.22 3.22.78 3.776-.713.9-1.78-1.186-3.927-2.974-3.087m-1.179-2.38c3.464-1.807 7.855 1.78 6.888 5.56-.57 3.573-5.365 5.273-8.02 2.833-2.835-2.146-2.153-7.08 1.132-8.393" id="Fill-5" fill="#9C85BA" mask="url(#mask-8)"/></g></g><g id="Group-3" transform="translate(0 30)" fill="#FD7661"><path d="M3.232 1.977C3.224 1.313 2.984-.031 4 0c1.212-.012.768 1.584.772 2.364-.404.676-1.596.456-1.54-.388" id="Fill-1"/><path d="M.484 3.213c.76.004 2.272-.408 2.308.748.032 1.048-1.288.812-1.972.804-.856.076-1.104-1.232-.336-1.552" id="Fill-3"/><path d="M5.656 3.217c.772-.004 2.336-.416 2.336.78-.004 1.024-1.316.768-1.996.764-.828.06-1.064-1.192-.34-1.544" id="Fill-5"/><path d="M3.704 5.217c1.46-.344 1.48 2.116.64 2.708-1.46.344-1.492-2.108-.64-2.708" id="Fill-7"/></g><path d="M52.743.214c1.677-.978 3.22 1.663 1.514 2.577-1.69.966-3.215-1.681-1.514-2.577" id="Fill-9" fill="#BDAED2"/><path d="M108.7 13.151c-1.827.87-.166 3.818 1.54 2.727 1.904-.881.185-3.874-1.54-2.727m-.611-1.839c2.304-1.135 5.232 1.002 4.882 3.52-.127 2.613-3.571 4.154-5.595 2.454-2.14-1.44-1.694-5.067.713-5.974" id="Fill-1" fill="#4DCCFD"/><path d="M3.145 57.063c1.427-.376 2.92.991 2.853 2.43.05 1.339-1.173 2.53-2.499 2.505-1.444.058-2.798-1.424-2.441-2.863 1.24-.794.8 1.174 1.63 1.521 1.086.891 2.784-.55 2.09-1.771-.2-1.06-2.458-.516-1.633-1.822" id="Fill-1" fill="#7ED536"/><g id="Group-13" transform="translate(29 81)" fill="#FEBF2D"><path d="M3.08 2.452C3.464 1.83 3.413.447 4.467.601c.47 1.993 1.864 3.484 3.896 3.902.347 1.086-1.209 1.016-1.8 1.42-1.395.36-1.53 1.987-2.09 3.074-1.221.09-1.035-1.608-1.549-2.347C2.385 5.37-.006 6.052 0 4.51c1.08-.553 2.68-.688 3.08-2.058" id="Fill-11"/></g><path d="M101.508 36.111c1.736-.169 3.49-.096 5.236-.09 1.366-.013 2.64.853 3.078 2.02.598 1.477-.372 3.262-2.004 3.769-1.214.32-2.503.12-3.747.175-1.519.03-3.354.132-4.358-1.131-1.519-1.571-.468-4.354 1.795-4.743" id="Fill-3" fill="#D0EEFE"/></g></g></g></g></svg>