<svg xmlns="http://www.w3.org/2000/svg" viewBox="0 0 1600 272.92"><g id="Layer_2" data-name="Layer 2"><g id="Layer_1-2" data-name="Layer 1"><path d="M0 257.42c0-9.2.4-15.5 1-15.5a6.12 6.12 0 002.7-1.8c3.6-3.7 16-13 24.4-18.3l10.5-6.7c1-.6 2.8-1.6 3.9-2.1s4.3-2.2 7-3.8 9.1-4.6 14-6.7 10.8-4.6 13-5.5c9.8-4.2 35-11.4 52-14.8 13.1-2.6 58.9-2.6 72 0 17.2 3.4 50.4 13.3 52.9 15.8a4.17 4.17 0 002.4.9c1.4 0 4.3 1.1 13.2 5.2l7.5 3.3c3.1 1.4 11.3 5.2 27.5 12.8 24.5 11.6 40.1 18.7 49.5 22.5 39.1 15.8 67 21.7 103.5 21.7 26.3 0 50-3.2 71.5-9.5 3.9-1.2 8.4-2.5 10-2.9a34.3 34.3 0 006.2-2.4 13.84 13.84 0 014.3-1.7 14.61 14.61 0 004.3-1.4c1.8-.7 7.3-3.1 12.2-5.2s9.5-4.1 10-4.5 5.7-3.1 11.5-6.1c13.3-6.9 22.1-11.8 24-13.2.8-.6 3.5-2.2 6-3.6s6.3-3.5 8.5-4.9 5.1-3.2 6.5-4c4.9-2.7 8.2-4.6 9.8-5.6.9-.5 5.8-3.4 10.7-6.3s9.7-5.7 10.5-6.2c7.1-4.3 34-17.7 43-21.5 3.6-1.5 7.4-3.1 8.5-3.6 7.1-3.1 36.3-12.2 47-14.7 42.1-9.6 90.9-9.7 135-.1 14.7 3.2 31.9 8 39.9 11a29.3 29.3 0 005.9 1.9c1.7 0 44.6 15.9 52.2 19.4 1.7.7 5 2.1 7.5 3.1s6.5 2.5 9 3.5 8.8 3.5 14 5.5 11.4 4.5 13.8 5.6a26.9 26.9 0 005.3 1.9 18 18 0 014.2 1.3c4.3 1.8 12.5 4.7 16.2 5.7 1.7.5 4.4 1.3 6 1.8a232.46 232.46 0 0023.5 6.6c27.5 5.9 27.4 5.9 53.5 6 22.2 0 26.2-.2 36-2.2 14.2-3 21.8-4.9 28-7.2a78 78 0 017.8-2.6 6.31 6.31 0 003.3-1.5 2.32 2.32 0 011.9-.9c1.6 0 16.2-7 22-10.5 2.2-1.3 5.4-3.2 7-4.1 16.8-9.4 46.8-35.7 67.6-59.5 13.7-15.7 14-16.1 20.2-23.9 3.3-4.1 6.5-7.9 7.1-8.5s3.8-4.4 7.1-8.5 6.6-8.3 7.4-9.2c3.2-3.5 4.8-5.5 12.6-14.8 11.2-13.3 33.5-35.5 43.2-42.8a98.43 98.43 0 018.7-6.2 21.29 21.29 0 004.2-2.5c8.4-5.7 20.8-10.7 33.7-13.6 8.3-1.8 11.7-2.1 22.5-1.6 11.7.5 17.7 1.6 31.2 5.8 11 3.4 31.3 14.9 43.4 24.7 11.5 9.3 17.7 15.2 31.9 30.4l5.7 6.2v205.6H0z" fill="#10312b" id="layer101"/></g></g></svg>