<svg height="512pt" viewBox="0 0 512 512" width="512pt" xmlns="http://www.w3.org/2000/svg"><path d="M510.871 497.387l-83.644-161.012 15.187-12.707a10.003 10.003 0 003.586-7.672V74.5C446 33.422 412.578 0 371.5 0h-231C99.422 0 66 33.422 66 74.5V109c0 5.52 4.48 10 10 10 5.523 0 10-4.48 10-10V74.5C86 44.45 110.45 20 140.5 20h231c30.05 0 54.5 24.45 54.5 54.5v236.824l-78.484 65.672H319v-14.5c0-5.52-4.477-10-10-10s-10 4.48-10 10v14.5h-30.375v-14.5c0-5.52-4.477-10-9.996-10-5.524 0-10 4.48-10 10v14.5h-30.375v-14.5c0-5.52-4.477-10-10-10-5.52 0-10 4.48-10 10v14.5h-33.77L86 311.324V203c0-5.523-4.477-10-10-10-5.52 0-10 4.477-10 10v113c0 2.96 1.313 5.77 3.586 7.668l15.187 12.707L1.13 497.387c-2.547 4.898-.637 10.937 4.262 13.484a9.965 9.965 0 004.601 1.125c3.613 0 7.106-1.96 8.883-5.39L100.48 349.52l13.82 11.562-52.636 137.336c-1.976 5.156.602 10.937 5.758 12.918 1.18.45 2.387.664 3.578.664a10.01 10.01 0 009.34-6.426l10.57-27.578H345c5.52 0 10-4.476 10-10 0-5.523-4.48-10-10-10H98.574l7.703-20.094c.426.055.852.094 1.293.094h296.512c.555 0 1.094-.055 1.621-.14l25.957 67.718A10.005 10.005 0 00441 512c1.191 0 2.398-.215 3.578-.664 5.156-1.98 7.735-7.762 5.758-12.918l-52.637-137.336 13.82-11.562 81.606 157.085a9.995 9.995 0 008.883 5.391c1.55 0 3.129-.36 4.601-1.125 4.899-2.547 6.809-8.582 4.262-13.484zm-112.777-79.39H113.906l16.614-43.345 23.917 20.016a10.001 10.001 0 006.418 2.328h190.293a9.99 9.99 0 006.414-2.328l23.918-20.016zm0 0"/><path d="M386 457.996a10.07 10.07 0 00-7.07 2.93 10.087 10.087 0 00-2.93 7.07c0 2.633 1.066 5.211 2.93 7.07a10.073 10.073 0 007.07 2.93 10.07 10.07 0 007.066-2.93 10.06 10.06 0 002.934-7.07 10.07 10.07 0 00-2.934-7.07 10.07 10.07 0 00-7.066-2.93zM398 102c0-16.543-13.457-30-30-30H144c-16.54 0-30 13.457-30 30v88c0 16.543 13.46 30 30 30h224c16.543 0 30-13.457 30-30zm-264 88v-88c0-5.516 4.488-10 10-10h102v108H144c-5.512 0-10-4.488-10-10zm244 0c0 5.512-4.488 10-10 10H266V92h102c5.512 0 10 4.484 10 10zM147.668 314c18.746 0 34-15.254 34-34 0-18.75-15.254-34-34-34-18.746 0-34 15.25-34 34 0 18.746 15.254 34 34 34zm0-48c7.719 0 14 6.277 14 14 0 7.719-6.281 14-14 14s-14-6.281-14-14c0-7.723 6.281-14 14-14zM364 246c-18.75 0-34 15.25-34 34 0 18.746 15.25 34 34 34 18.746 0 34-15.254 34-34 0-18.75-15.254-34-34-34zm0 48c-7.723 0-14-6.281-14-14 0-7.723 6.277-14 14-14 7.719 0 14 6.277 14 14 0 7.719-6.281 14-14 14zm-55-47.875H208.254c-5.52 0-10 4.477-10 10s4.48 10 10 10H309c5.523 0 10-4.477 10-10s-4.477-10-10-10zM309 294H208.254c-5.52 0-10 4.477-10 10 0 5.52 4.48 10 10 10H309c5.523 0 10-4.48 10-10 0-5.523-4.477-10-10-10zM76 164.328a10.02 10.02 0 007.07-2.93 10.056 10.056 0 002.93-7.07 10.07 10.07 0 00-2.93-7.066 10.06 10.06 0 00-7.07-2.934 10.07 10.07 0 00-7.07 2.934 10.07 10.07 0 00-2.93 7.066c0 2.64 1.07 5.211 2.93 7.07a10.037 10.037 0 007.07 2.93zm0 0"/></svg>