<svg version="1.1" id="Capa_1" xmlns="http://www.w3.org/2000/svg" x="0" y="0" viewBox="0 0 512 512" xml:space="preserve"><circle cx="256" cy="256" r="245" fill="#1a2b63"/><path d="M463.888 121.916c-2.763 0-5.637 2.044-6.544 4.654l-2.556 6.137c-1.199 2.422-.621 5.894 1.343 7.843l9.546 9.475c.605.6.939 1.403.939 2.259s-.334 1.659-.939 2.259l-17.313 17.182a3.22 3.22 0 01-2.287.935 3.223 3.223 0 01-2.288-.935l-9.545-9.474c-1.223-1.214-3.111-1.938-5.049-1.938-1.043 0-2.037.216-2.876.624l-6.225 2.549c-2.56.874-4.609 3.742-4.609 6.506v13.359a3.22 3.22 0 01-3.216 3.216h-24.516a3.22 3.22 0 01-3.216-3.216v-13.359c0-2.765-2.049-5.632-4.665-6.527l-6.226-2.555c-.781-.382-1.775-.598-2.817-.598-1.938 0-3.826.725-5.049 1.938l-9.545 9.474c-.607.604-1.42.936-2.288.936s-1.681-.332-2.288-.935l-17.314-17.182a3.162 3.162 0 01-.939-2.259c0-.857.333-1.659.938-2.259l9.549-9.475c1.965-1.95 2.543-5.421 1.316-7.902l-2.551-6.134c-.886-2.554-3.761-4.598-6.523-4.598h-13.528a3.192 3.192 0 01-2.271-.945 3.188 3.188 0 01-.945-2.27V106.43H48c-5.5 0-10 4.5-10 10v269h436V121.916h-10.112z" fill="#85a0dd"/><path d="M448.365 171.726a3.22 3.22 0 01-2.287.935 3.223 3.223 0 01-2.288-.935l-9.545-9.474c-1.223-1.214-3.111-1.938-5.049-1.938-1.043 0-2.037.216-2.876.624l-6.225 2.549c-2.56.874-4.609 3.742-4.609 6.506v13.359a3.22 3.22 0 01-3.216 3.216h-24.516a3.22 3.22 0 01-3.216-3.216v-13.359c0-2.765-2.049-5.632-4.665-6.527l-6.226-2.555c-.781-.382-1.775-.598-2.817-.598-1.938 0-3.826.725-5.049 1.938l-9.545 9.474c-.607.604-1.42.936-2.288.936s-1.681-.332-2.288-.935l-17.314-17.182a3.162 3.162 0 01-.939-2.259c0-.857.333-1.659.938-2.259l9.549-9.475c1.965-1.95 2.543-5.421 1.316-7.902l-.506-1.218H68c-2.75 0-5 2.25-5 5v222c0 2.75 2.25 5 5 5h376c2.75 0 5-2.25 5-5V171.096l-.635.63z" fill="#fff"/><path d="M252.834 207.936a3.484 3.484 0 013.481-3.481h13.039V157.16c0-2.75-2.25-5-5-5h-66.646c-2.75 0-5 2.25-5 5v59.007c0 2.75 2.25 5 5 5h55.126v-13.231z" fill="#5dc1d8"/><path d="M426.319 160.938l-6.225 2.549c-2.56.874-4.609 3.742-4.609 6.506v13.359a3.22 3.22 0 01-3.216 3.216h-24.516a3.22 3.22 0 01-3.216-3.216v-13.359c0-2.765-2.049-5.632-4.665-6.527l-6.226-2.555c-.781-.382-1.775-.598-2.817-.598-1.938 0-3.826.725-5.049 1.938l-9.545 9.474c-.607.604-1.42.936-2.288.936s-1.681-.332-2.288-.935l-17.314-17.182a3.162 3.162 0 01-.939-2.259c0-.043.011-.083.012-.126h-47.71c-2.75 0-5 2.25-5 5v47.295h48.311a3.485 3.485 0 013.481 3.481v13.23h88.854c2.75 0 5-2.25 5-5v-55.243c-.011.007-.023.01-.035.016z" fill="#69cdff"/><path d="M212.55 216.166v-59.007c0-2.75 2.25-5 5-5h-19.842c-2.75 0-5 2.25-5 5v59.007c0 2.75 2.25 5 5 5h19.842c-2.75 0-5-2.25-5-5z" fill="#28a5a5"/><path d="M300.55 204.454v-47.295c0-2.75 2.25-5 5-5h-19.842c-2.75 0-5 2.25-5 5v47.295h19.842z" fill="#3eb7ff"/><path d="M68 131.431c-2.75 0-5 2.25-5 5v222c0 2.75 2.25 5 5 5h101v-232H68z" fill="#d9eafc"/><path d="M82.842 358.431v-222c0-2.75 2.25-5 5-5H68c-2.75 0-5 2.25-5 5v222c0 2.75 2.25 5 5 5h19.842c-2.75 0-5-2.25-5-5z" fill="#c3ddf4"/><path d="M512 425.431c0 2.75-2.25 5-5 5H5c-2.75 0-5-2.25-5-5v-36c0-2.75 2.25-5 5-5h502c2.75 0 5 2.25 5 5v36z" fill="#445ea0"/><path d="M19.842 425.431v-36c0-2.75 2.25-5 5-5H5c-2.75 0-5 2.25-5 5v36c0 2.75 2.25 5 5 5h19.842c-2.75 0-5-2.25-5-5z" fill="#293d7c"/><path d="M140.701 189.662H83.696a7.5 7.5 0 010-15h57.005a7.5 7.5 0 010 15zm0 33.003H83.696a7.5 7.5 0 010-15h57.005a7.5 7.5 0 010 15zm0 33.004H83.696a7.5 7.5 0 010-15h57.005a7.5 7.5 0 010 15zm0 33.003H83.696a7.5 7.5 0 010-15h57.005a7.5 7.5 0 010 15zm-17 33.004H83.696a7.5 7.5 0 010-15h40.005a7.5 7.5 0 010 15z" fill="#445ea0"/><path d="M215.207 340.057c0 1.65-1.35 3-3 3h-16.499c-1.65 0-3-1.35-3-3v-86.995c0-1.65 1.35-3 3-3h16.499c1.65 0 3 1.35 3 3v86.995zm29.999 0c0 1.65-1.35 3-3 3h-16.499c-1.65 0-3-1.35-3-3V284.56c0-1.65 1.35-3 3-3h16.499c1.65 0 3 1.35 3 3v55.497zm29.998 0c0 1.65-1.35 3-3 3h-16.499c-1.65 0-3-1.35-3-3v-38.998c0-1.65 1.35-3 3-3h16.499c1.65 0 3 1.35 3 3v38.998z" fill="#91e0e8"/><path d="M305.203 340.057c0 1.65-1.35 3-3 3h-16.499c-1.65 0-3-1.35-3-3v-70.496c0-1.65 1.35-3 3-3h16.499c1.65 0 3 1.35 3 3v70.496zm29.998 0c0 1.65-1.35 3-3 3h-16.499c-1.65 0-3-1.35-3-3V292.06c0-1.65 1.35-3 3-3h16.499c1.65 0 3 1.35 3 3v47.997zm29.999 0c0 1.65-1.35 3-3 3h-16.499c-1.65 0-3-1.35-3-3v-29.998c0-1.65 1.35-3 3-3H362.2c1.65 0 3 1.35 3 3v29.998z" fill="#52bbef"/><path d="M395.198 340.057c0 1.65-1.35 3-3 3h-16.499c-1.65 0-3-1.35-3-3v-67.496c0-1.65 1.35-3 3-3h16.499c1.65 0 3 1.35 3 3v67.496zm29.999 0c0 1.65-1.35 3-3 3h-16.499c-1.65 0-3-1.35-3-3v-86.995c0-1.65 1.35-3 3-3h16.499c1.65 0 3 1.35 3 3v86.995z" fill="#f87eab"/><path d="M203.55 340.057v-86.995c0-1.65 1.35-3 3-3h-10.842c-1.65 0-3 1.35-3 3v86.995c0 1.65 1.35 3 3 3h10.842c-1.65 0-3-1.35-3-3zm29.999 0V284.56c0-1.65 1.35-3 3-3h-10.842c-1.65 0-3 1.35-3 3v55.497c0 1.65 1.35 3 3 3h10.842c-1.65 0-3-1.35-3-3zm29.998 0v-38.998c0-1.65 1.35-3 3-3h-10.842c-1.65 0-3 1.35-3 3v38.998c0 1.65 1.35 3 3 3h10.842c-1.65 0-3-1.35-3-3z" fill="#5dc1d8"/><path d="M293.546 340.057v-70.496c0-1.65 1.35-3 3-3h-10.842c-1.65 0-3 1.35-3 3v70.496c0 1.65 1.35 3 3 3h10.842c-1.65 0-3-1.35-3-3zm29.998 0V292.06c0-1.65 1.35-3 3-3h-10.842c-1.65 0-3 1.35-3 3v47.997c0 1.65 1.35 3 3 3h10.842c-1.649 0-3-1.35-3-3zm29.999 0v-29.998c0-1.65 1.35-3 3-3h-10.842c-1.65 0-3 1.35-3 3v29.998c0 1.65 1.35 3 3 3h10.842c-1.65 0-3-1.35-3-3z" fill="#3eb7ff"/><path d="M383.542 340.057v-67.496c0-1.65 1.35-3 3-3H375.7c-1.65 0-3 1.35-3 3v67.496c0 1.65 1.35 3 3 3h10.842c-1.65 0-3-1.35-3-3zm29.998 0v-86.995c0-1.65 1.35-3 3-3h-10.842c-1.65 0-3 1.35-3 3v86.995c0 1.65 1.35 3 3 3h10.842c-1.65 0-3-1.35-3-3z" fill="#e26693"/><path d="M193 384.431v11c0 5.5 4.5 10 10 10h106c5.5 0 10-4.5 10-10v-11H193z" fill="#293d7c"/><path d="M212.842 395.431v-11H193v11c0 5.5 4.5 10 10 10h19.842c-5.5 0-10-4.5-10-10z" fill="#1a2b63"/><path d="M333.5 207.936a4.495 4.495 0 00-4.481-4.481h-72.703a4.496 4.496 0 00-4.481 4.481v32.865a4.494 4.494 0 004.481 4.481h23.35c2.465 0 5.49 1.746 6.723 3.882l4.038 6.993c1.232 2.135 3.249 2.135 4.481 0l4.038-6.993c1.233-2.136 4.258-3.882 6.723-3.882h23.35a4.495 4.495 0 004.481-4.481v-32.865z" fill="#ffd00d"/><path d="M271.676 240.801v-32.865a4.495 4.495 0 014.481-4.481h-19.842a4.496 4.496 0 00-4.481 4.481v32.865a4.494 4.494 0 004.481 4.481h19.842a4.494 4.494 0 01-4.481-4.481z" fill="#ffaf10"/><path d="M383.537 183.353a4.229 4.229 0 004.216 4.216h24.516a4.228 4.228 0 004.216-4.216v-13.359c0-2.319 1.795-4.83 3.989-5.581l6.283-2.575c2.085-1.015 5.137-.509 6.783 1.125l9.545 9.474c1.646 1.633 4.339 1.633 5.984 0l17.313-17.182a4.19 4.19 0 000-5.938l-9.546-9.475c-1.645-1.633-2.151-4.671-1.125-6.749l2.577-6.193c.761-2.19 3.28-3.982 5.599-3.982h13.529a4.226 4.226 0 004.216-4.215V94.437a4.228 4.228 0 00-4.216-4.216h-13.529c-2.319 0-4.838-1.793-5.599-3.982l-2.577-6.193c-1.027-2.079-.521-5.115 1.125-6.749l9.545-9.473a4.188 4.188 0 00.001-5.938L449.07 40.703c-1.645-1.632-4.338-1.632-5.984 0l-9.546 9.474c-1.646 1.634-4.698 2.139-6.783 1.125l-6.282-2.575c-2.194-.751-3.989-3.262-3.989-5.581v-13.36a4.229 4.229 0 00-4.216-4.216h-24.516a4.228 4.228 0 00-4.216 4.216v13.36c0 2.319-1.795 4.83-3.988 5.581l-6.279 2.575c-2.085 1.014-5.137.509-6.783-1.125l-9.547-9.474c-1.646-1.633-4.339-1.633-5.985 0L333.64 57.884a4.188 4.188 0 000 5.938l9.546 9.475c1.646 1.633 2.152 4.67 1.125 6.748l-2.577 6.193c-.761 2.189-3.281 3.982-5.6 3.982h-13.528a4.227 4.227 0 00-4.216 4.216v24.265a4.227 4.227 0 004.216 4.215h13.528c2.318 0 4.838 1.792 5.6 3.982l2.578 6.193c1.028 2.078.522 5.116-1.125 6.749l-9.548 9.475a4.188 4.188 0 000 5.938l17.315 17.182c1.646 1.633 4.339 1.633 5.985-.001l9.545-9.474c1.646-1.633 4.698-2.139 6.783-1.125l6.282 2.576c2.193.751 3.988 3.262 3.988 5.581v13.361z" fill="#ef8318"/><ellipse cx="400.01" cy="106.57" rx="39.28" ry="38.984" fill="#ff9518"/><path d="M372.679 106.569c0-19.516 14.447-35.681 33.307-38.536a39.88 39.88 0 00-5.974-.447c-21.696 0-39.282 17.452-39.282 38.983 0 21.53 17.586 38.985 39.282 38.985 2.031 0 4.026-.153 5.974-.449-18.86-2.855-33.307-19.021-33.307-38.536z" fill="#ef8318"/><path d="M400.012 151.878c-25.147 0-45.606-20.325-45.606-45.309 0-24.982 20.459-45.308 45.606-45.308 25.148 0 45.607 20.325 45.607 45.308-.002 24.984-20.46 45.309-45.607 45.309zm0-77.969c-18.172 0-32.958 14.651-32.959 32.66 0 18.01 14.786 32.662 32.959 32.662 18.174 0 32.959-14.652 32.959-32.662 0-18.008-14.786-32.66-32.959-32.66z" fill="#db722c"/><ellipse cx="400.01" cy="106.57" rx="16.605" ry="16.479" fill="#ff9518"/><path d="M395.355 106.569c0-7.009 4.416-12.98 10.632-15.362a16.642 16.642 0 00-5.975-1.117c-9.172 0-16.605 7.377-16.605 16.479s7.434 16.479 16.605 16.479c2.109 0 4.118-.405 5.975-1.117-6.216-2.382-10.632-8.354-10.632-15.362z" fill="#ef8318"/><path d="M400.012 129.373c-12.643 0-22.929-10.23-22.929-22.804 0-12.573 10.286-22.804 22.929-22.804s22.929 10.229 22.929 22.804c-.001 12.574-10.287 22.804-22.929 22.804zm0-32.96c-5.669 0-10.282 4.556-10.282 10.156 0 5.601 4.612 10.156 10.282 10.156 5.669 0 10.281-4.557 10.281-10.156 0-5.6-4.612-10.156-10.281-10.156z" fill="#db722c"/></svg>